# xmcd
#
# Track frame offsets:
#	150
#	19299
#	51708
#	89166
#	111384
#	132811
#	155639
#	180913
#	204639
#
# Disc length: 3112 seconds
#
# Revision: 1
# Processed by: cddbd v1.5.2PL0 Copyright (c) Steve Scherf et al.
# Submitted via: audiograbber 1.83.01
#
DISCID=840c2609
DTITLE=Robin Bibi - No More A Secret (UK)
DYEAR=2016
DGENRE=Blues
TTITLE0=Play
TTITLE1=In Too Deep
TTITLE2=Packing My Possessions
TTITLE3=Christmas Day
TTITLE4=Fast Lanes Busy
TTITLE5=Get In It
TTITLE6=(Drowning In ) Muddy Waters
TTITLE7=No More A Secret
TTITLE8=No Label On Me
EXTD=
EXTT0=
EXTT1=
EXTT2=
EXTT3=
EXTT4=
EXTT5=
EXTT6=
EXTT7=
EXTT8=
PLAYORDER=
